<mxfile host="Electron" agent="Mozilla/5.0 (Windows NT 10.0; Win64; x64) AppleWebKit/537.36 (KHTML, like Gecko) draw.io/24.7.8 Chrome/128.0.6613.36 Electron/32.0.1 Safari/537.36" version="24.7.8">
  <diagram name="Страница — 1" id="DGp-1BqGF6IHvm2e77TG">
    <mxGraphModel dx="3447" dy="1218" grid="1" gridSize="10" guides="1" tooltips="1" connect="1" arrows="1" fold="1" page="1" pageScale="1" pageWidth="827" pageHeight="1169" math="0" shadow="0">
      <root>
        <mxCell id="0" />
        <mxCell id="1" parent="0" />
        <mxCell id="kP3Kko3-cJWs_1ZrGVj_-54" value="&lt;span style=&quot;font-style: italic; text-wrap: nowrap;&quot;&gt;&amp;lt;&amp;lt;entity&amp;gt;&amp;gt;&lt;/span&gt;&amp;nbsp;PodMetrics" style="swimlane;fontStyle=0;childLayout=stackLayout;horizontal=1;startSize=26;fillColor=none;horizontalStack=0;resizeParent=1;resizeParentMax=0;resizeLast=0;collapsible=1;marginBottom=0;whiteSpace=wrap;html=1;" parent="1" vertex="1">
          <mxGeometry x="-1450" y="906" width="210" height="182" as="geometry" />
        </mxCell>
        <mxCell id="kP3Kko3-cJWs_1ZrGVj_-55" value="&lt;div&gt;- cpuUsage: float&lt;/div&gt;&lt;div&gt;&lt;span style=&quot;background-color: initial;&quot;&gt;- memoryUsage: float&lt;/span&gt;&lt;/div&gt;&lt;div&gt;- diskUsage: float&lt;/div&gt;&lt;div&gt;- averageResponseTime: float&lt;/div&gt;" style="text;strokeColor=none;fillColor=none;align=left;verticalAlign=top;spacingLeft=4;spacingRight=4;overflow=hidden;rotatable=0;points=[[0,0.5],[1,0.5]];portConstraint=eastwest;whiteSpace=wrap;html=1;" parent="kP3Kko3-cJWs_1ZrGVj_-54" vertex="1">
          <mxGeometry y="26" width="210" height="74" as="geometry" />
        </mxCell>
        <mxCell id="j2k7lzoektzGdvymhS1a-54" value="" style="line;html=1;strokeWidth=1;align=left;verticalAlign=middle;spacingTop=-1;spacingLeft=3;spacingRight=3;rotatable=0;labelPosition=right;points=[];portConstraint=eastwest;" vertex="1" parent="kP3Kko3-cJWs_1ZrGVj_-54">
          <mxGeometry y="100" width="210" height="8" as="geometry" />
        </mxCell>
        <mxCell id="j2k7lzoektzGdvymhS1a-53" value="&lt;div&gt;+ getCpuUsage: float&lt;/div&gt;&lt;div&gt;&lt;span style=&quot;background-color: initial;&quot;&gt;+ getMemoryUsage: float&lt;/span&gt;&lt;/div&gt;&lt;div&gt;+ getDiskUsage: float&lt;/div&gt;&lt;div&gt;+ getAverageResponseTime: float&lt;/div&gt;" style="text;strokeColor=none;fillColor=none;align=left;verticalAlign=top;spacingLeft=4;spacingRight=4;overflow=hidden;rotatable=0;points=[[0,0.5],[1,0.5]];portConstraint=eastwest;whiteSpace=wrap;html=1;" vertex="1" parent="kP3Kko3-cJWs_1ZrGVj_-54">
          <mxGeometry y="108" width="210" height="74" as="geometry" />
        </mxCell>
        <mxCell id="j2k7lzoektzGdvymhS1a-25" style="edgeStyle=orthogonalEdgeStyle;rounded=0;orthogonalLoop=1;jettySize=auto;html=1;entryX=0;entryY=0.5;entryDx=0;entryDy=0;endArrow=diamondThin;endFill=1;" edge="1" parent="1" source="j2k7lzoektzGdvymhS1a-18" target="j2k7lzoektzGdvymhS1a-21">
          <mxGeometry relative="1" as="geometry" />
        </mxCell>
        <mxCell id="j2k7lzoektzGdvymhS1a-18" value="&lt;p style=&quot;margin:0px;margin-top:4px;text-align:center;&quot;&gt;&lt;i&gt;&amp;lt;&amp;lt;Interface&amp;gt;&amp;gt;&lt;/i&gt;&lt;br&gt;&lt;b&gt;KubernetesController&lt;/b&gt;&lt;/p&gt;&lt;hr size=&quot;1&quot; style=&quot;border-style:solid;&quot;&gt;&lt;p style=&quot;margin:0px;margin-left:4px;&quot;&gt;&lt;/p&gt;&lt;p style=&quot;margin:0px;margin-left:4px;&quot;&gt;+ Reconcile():&amp;nbsp;&lt;span style=&quot;background-color: initial;&quot;&gt;List&amp;lt;&lt;/span&gt;&lt;span style=&quot;background-color: initial; font-style: italic; text-align: center; text-wrap: nowrap;&quot;&gt;CustomResource&amp;gt;&lt;/span&gt;&lt;/p&gt;" style="verticalAlign=top;align=left;overflow=fill;html=1;whiteSpace=wrap;" vertex="1" parent="1">
          <mxGeometry x="-740" y="704.5" width="240" height="67" as="geometry" />
        </mxCell>
        <mxCell id="j2k7lzoektzGdvymhS1a-19" value=" CustomResource {abstract}" style="swimlane;fontStyle=2;align=center;verticalAlign=top;childLayout=stackLayout;horizontal=1;startSize=26;horizontalStack=0;resizeParent=1;resizeLast=0;collapsible=1;marginBottom=0;rounded=0;shadow=0;strokeWidth=1;" vertex="1" parent="1">
          <mxGeometry x="-342" y="673" width="180" height="120" as="geometry">
            <mxRectangle x="230" y="140" width="160" height="26" as="alternateBounds" />
          </mxGeometry>
        </mxCell>
        <mxCell id="j2k7lzoektzGdvymhS1a-20" value="+ id: String" style="text;align=left;verticalAlign=top;spacingLeft=4;spacingRight=4;overflow=hidden;rotatable=0;points=[[0,0.5],[1,0.5]];portConstraint=eastwest;" vertex="1" parent="j2k7lzoektzGdvymhS1a-19">
          <mxGeometry y="26" width="180" height="26" as="geometry" />
        </mxCell>
        <mxCell id="j2k7lzoektzGdvymhS1a-21" value="+ spec: ConfigMap" style="text;align=left;verticalAlign=top;spacingLeft=4;spacingRight=4;overflow=hidden;rotatable=0;points=[[0,0.5],[1,0.5]];portConstraint=eastwest;" vertex="1" parent="j2k7lzoektzGdvymhS1a-19">
          <mxGeometry y="52" width="180" height="26" as="geometry" />
        </mxCell>
        <mxCell id="j2k7lzoektzGdvymhS1a-22" value="" style="line;html=1;strokeWidth=1;align=left;verticalAlign=middle;spacingTop=-1;spacingLeft=3;spacingRight=3;rotatable=0;labelPosition=right;points=[];portConstraint=eastwest;" vertex="1" parent="j2k7lzoektzGdvymhS1a-19">
          <mxGeometry y="78" width="180" height="8" as="geometry" />
        </mxCell>
        <mxCell id="j2k7lzoektzGdvymhS1a-23" value="+ &lt;&lt;signal&gt;&gt; apply()" style="text;align=left;verticalAlign=top;spacingLeft=4;spacingRight=4;overflow=hidden;rotatable=0;points=[[0,0.5],[1,0.5]];portConstraint=eastwest;" vertex="1" parent="j2k7lzoektzGdvymhS1a-19">
          <mxGeometry y="86" width="180" height="26" as="geometry" />
        </mxCell>
        <mxCell id="j2k7lzoektzGdvymhS1a-35" style="edgeStyle=orthogonalEdgeStyle;rounded=0;orthogonalLoop=1;jettySize=auto;html=1;exitX=0.5;exitY=0;exitDx=0;exitDy=0;entryX=0.5;entryY=1;entryDx=0;entryDy=0;endArrow=block;endFill=0;dashed=1;" edge="1" parent="1" source="j2k7lzoektzGdvymhS1a-26" target="j2k7lzoektzGdvymhS1a-18">
          <mxGeometry relative="1" as="geometry" />
        </mxCell>
        <mxCell id="j2k7lzoektzGdvymhS1a-71" style="edgeStyle=orthogonalEdgeStyle;rounded=0;orthogonalLoop=1;jettySize=auto;html=1;exitX=0.75;exitY=1;exitDx=0;exitDy=0;entryX=0.5;entryY=0;entryDx=0;entryDy=0;" edge="1" parent="1" source="j2k7lzoektzGdvymhS1a-26" target="j2k7lzoektzGdvymhS1a-56">
          <mxGeometry relative="1" as="geometry" />
        </mxCell>
        <mxCell id="j2k7lzoektzGdvymhS1a-73" value="Manage load balancer settings&amp;nbsp;" style="edgeLabel;html=1;align=center;verticalAlign=middle;resizable=0;points=[];" vertex="1" connectable="0" parent="j2k7lzoektzGdvymhS1a-71">
          <mxGeometry x="-0.2043" y="1" relative="1" as="geometry">
            <mxPoint as="offset" />
          </mxGeometry>
        </mxCell>
        <mxCell id="j2k7lzoektzGdvymhS1a-26" value="&lt;&lt;service&gt;&gt; AutoScalerController" style="swimlane;fontStyle=2;align=center;verticalAlign=top;childLayout=stackLayout;horizontal=1;startSize=26;horizontalStack=0;resizeParent=1;resizeLast=0;collapsible=1;marginBottom=0;rounded=0;shadow=0;strokeWidth=1;" vertex="1" parent="1">
          <mxGeometry x="-820" y="879" width="400" height="182" as="geometry">
            <mxRectangle x="230" y="140" width="160" height="26" as="alternateBounds" />
          </mxGeometry>
        </mxCell>
        <mxCell id="j2k7lzoektzGdvymhS1a-28" value="- metricsColector: MetricCollector&#xa;- scalingEngine: ScalingEngine" style="text;align=left;verticalAlign=middle;spacingLeft=4;spacingRight=4;overflow=hidden;rotatable=0;points=[[0,0.5],[1,0.5]];portConstraint=eastwest;" vertex="1" parent="j2k7lzoektzGdvymhS1a-26">
          <mxGeometry y="26" width="400" height="44" as="geometry" />
        </mxCell>
        <mxCell id="j2k7lzoektzGdvymhS1a-29" value="" style="line;html=1;strokeWidth=1;align=left;verticalAlign=middle;spacingTop=-1;spacingLeft=3;spacingRight=3;rotatable=0;labelPosition=right;points=[];portConstraint=eastwest;" vertex="1" parent="j2k7lzoektzGdvymhS1a-26">
          <mxGeometry y="70" width="400" height="8" as="geometry" />
        </mxCell>
        <mxCell id="j2k7lzoektzGdvymhS1a-31" value="+ getMetrics(): List&lt;PodMetrics&gt;" style="text;align=left;verticalAlign=top;spacingLeft=4;spacingRight=4;overflow=hidden;rotatable=0;points=[[0,0.5],[1,0.5]];portConstraint=eastwest;" vertex="1" parent="j2k7lzoektzGdvymhS1a-26">
          <mxGeometry y="78" width="400" height="26" as="geometry" />
        </mxCell>
        <mxCell id="j2k7lzoektzGdvymhS1a-52" value="+ Reconcile(): List&lt;CustomResource&gt;&#xa;" style="text;align=left;verticalAlign=top;spacingLeft=4;spacingRight=4;overflow=hidden;rotatable=0;points=[[0,0.5],[1,0.5]];portConstraint=eastwest;" vertex="1" parent="j2k7lzoektzGdvymhS1a-26">
          <mxGeometry y="104" width="400" height="26" as="geometry" />
        </mxCell>
        <mxCell id="j2k7lzoektzGdvymhS1a-75" value="+ setLoadBalancingAlgorithm(algorithm: LoadBalancingAlgorithmType)&#xa;" style="text;align=left;verticalAlign=top;spacingLeft=4;spacingRight=4;overflow=hidden;rotatable=0;points=[[0,0.5],[1,0.5]];portConstraint=eastwest;" vertex="1" parent="j2k7lzoektzGdvymhS1a-26">
          <mxGeometry y="130" width="400" height="26" as="geometry" />
        </mxCell>
        <mxCell id="j2k7lzoektzGdvymhS1a-107" value="+ setScalingRule(rule: ScalingRule)&#xa;" style="text;align=left;verticalAlign=top;spacingLeft=4;spacingRight=4;overflow=hidden;rotatable=0;points=[[0,0.5],[1,0.5]];portConstraint=eastwest;" vertex="1" parent="j2k7lzoektzGdvymhS1a-26">
          <mxGeometry y="156" width="400" height="26" as="geometry" />
        </mxCell>
        <mxCell id="j2k7lzoektzGdvymhS1a-41" style="edgeStyle=orthogonalEdgeStyle;rounded=0;orthogonalLoop=1;jettySize=auto;html=1;exitX=0.5;exitY=0;exitDx=0;exitDy=0;entryX=0.5;entryY=1;entryDx=0;entryDy=0;endArrow=block;endFill=0;" edge="1" parent="1" source="j2k7lzoektzGdvymhS1a-36" target="j2k7lzoektzGdvymhS1a-19">
          <mxGeometry relative="1" as="geometry" />
        </mxCell>
        <mxCell id="j2k7lzoektzGdvymhS1a-42" value="Extends" style="edgeLabel;html=1;align=center;verticalAlign=middle;resizable=0;points=[];" vertex="1" connectable="0" parent="j2k7lzoektzGdvymhS1a-41">
          <mxGeometry x="-0.0401" y="-1" relative="1" as="geometry">
            <mxPoint as="offset" />
          </mxGeometry>
        </mxCell>
        <mxCell id="j2k7lzoektzGdvymhS1a-36" value="&lt;&lt;entity&gt;&gt; AutoScalerResource" style="swimlane;fontStyle=2;align=center;verticalAlign=top;childLayout=stackLayout;horizontal=1;startSize=26;horizontalStack=0;resizeParent=1;resizeLast=0;collapsible=1;marginBottom=0;rounded=0;shadow=0;strokeWidth=1;" vertex="1" parent="1">
          <mxGeometry x="-362" y="900" width="221" height="120" as="geometry">
            <mxRectangle x="230" y="140" width="160" height="26" as="alternateBounds" />
          </mxGeometry>
        </mxCell>
        <mxCell id="j2k7lzoektzGdvymhS1a-37" value="+ id: String" style="text;align=left;verticalAlign=top;spacingLeft=4;spacingRight=4;overflow=hidden;rotatable=0;points=[[0,0.5],[1,0.5]];portConstraint=eastwest;" vertex="1" parent="j2k7lzoektzGdvymhS1a-36">
          <mxGeometry y="26" width="221" height="26" as="geometry" />
        </mxCell>
        <mxCell id="j2k7lzoektzGdvymhS1a-38" value="+ spec: ConfigMap" style="text;align=left;verticalAlign=top;spacingLeft=4;spacingRight=4;overflow=hidden;rotatable=0;points=[[0,0.5],[1,0.5]];portConstraint=eastwest;" vertex="1" parent="j2k7lzoektzGdvymhS1a-36">
          <mxGeometry y="52" width="221" height="26" as="geometry" />
        </mxCell>
        <mxCell id="j2k7lzoektzGdvymhS1a-39" value="" style="line;html=1;strokeWidth=1;align=left;verticalAlign=middle;spacingTop=-1;spacingLeft=3;spacingRight=3;rotatable=0;labelPosition=right;points=[];portConstraint=eastwest;" vertex="1" parent="j2k7lzoektzGdvymhS1a-36">
          <mxGeometry y="78" width="221" height="8" as="geometry" />
        </mxCell>
        <mxCell id="j2k7lzoektzGdvymhS1a-40" value="+ &lt;&lt;signal&gt;&gt;apply()" style="text;align=left;verticalAlign=top;spacingLeft=4;spacingRight=4;overflow=hidden;rotatable=0;points=[[0,0.5],[1,0.5]];portConstraint=eastwest;" vertex="1" parent="j2k7lzoektzGdvymhS1a-36">
          <mxGeometry y="86" width="221" height="26" as="geometry" />
        </mxCell>
        <mxCell id="j2k7lzoektzGdvymhS1a-51" style="edgeStyle=orthogonalEdgeStyle;rounded=0;orthogonalLoop=1;jettySize=auto;html=1;exitX=1;exitY=0.5;exitDx=0;exitDy=0;endArrow=none;endFill=0;entryX=-0.008;entryY=0.142;entryDx=0;entryDy=0;entryPerimeter=0;" edge="1" parent="1" source="j2k7lzoektzGdvymhS1a-44">
          <mxGeometry relative="1" as="geometry">
            <mxPoint x="-823.2" y="968.692" as="targetPoint" />
          </mxGeometry>
        </mxCell>
        <mxCell id="j2k7lzoektzGdvymhS1a-43" value="&amp;lt;&amp;lt;repository&amp;gt;&amp;gt; MetricsCollector" style="swimlane;fontStyle=0;childLayout=stackLayout;horizontal=1;startSize=26;fillColor=none;horizontalStack=0;resizeParent=1;resizeParentMax=0;resizeLast=0;collapsible=1;marginBottom=0;whiteSpace=wrap;html=1;" vertex="1" parent="1">
          <mxGeometry x="-1160" y="930" width="220" height="52" as="geometry" />
        </mxCell>
        <mxCell id="j2k7lzoektzGdvymhS1a-44" value="+ collectMetrics(): List&amp;lt;PodMetrics&amp;gt;" style="text;strokeColor=none;fillColor=none;align=left;verticalAlign=top;spacingLeft=4;spacingRight=4;overflow=hidden;rotatable=0;points=[[0,0.5],[1,0.5]];portConstraint=eastwest;whiteSpace=wrap;html=1;" vertex="1" parent="j2k7lzoektzGdvymhS1a-43">
          <mxGeometry y="26" width="220" height="26" as="geometry" />
        </mxCell>
        <mxCell id="j2k7lzoektzGdvymhS1a-55" style="edgeStyle=orthogonalEdgeStyle;rounded=0;orthogonalLoop=1;jettySize=auto;html=1;exitX=1;exitY=0.5;exitDx=0;exitDy=0;entryX=0;entryY=0.5;entryDx=0;entryDy=0;endArrow=diamond;endFill=0;" edge="1" parent="1" source="kP3Kko3-cJWs_1ZrGVj_-55" target="j2k7lzoektzGdvymhS1a-44">
          <mxGeometry relative="1" as="geometry" />
        </mxCell>
        <mxCell id="j2k7lzoektzGdvymhS1a-56" value="&lt;span style=&quot;font-weight: normal;&quot;&gt;&amp;lt;&amp;lt;&lt;/span&gt;&lt;span style=&quot;font-weight: 400;&quot;&gt;service&lt;/span&gt;&lt;span style=&quot;font-weight: normal;&quot;&gt;&amp;gt;&amp;gt;&amp;nbsp;&lt;/span&gt;&lt;span style=&quot;font-weight: normal;&quot;&gt;LoadBalancer&lt;/span&gt;" style="swimlane;fontStyle=1;align=center;verticalAlign=top;childLayout=stackLayout;horizontal=1;startSize=26;horizontalStack=0;resizeParent=1;resizeParentMax=0;resizeLast=0;collapsible=1;marginBottom=0;whiteSpace=wrap;html=1;" vertex="1" parent="1">
          <mxGeometry x="-520" y="1147" width="250" height="138" as="geometry" />
        </mxCell>
        <mxCell id="j2k7lzoektzGdvymhS1a-57" value="&lt;div&gt;- algorithm: LoadBalancingAlgorithmType&lt;/div&gt;&lt;div&gt;&lt;br&gt;&lt;/div&gt;" style="text;strokeColor=none;fillColor=none;align=left;verticalAlign=top;spacingLeft=4;spacingRight=4;overflow=hidden;rotatable=0;points=[[0,0.5],[1,0.5]];portConstraint=eastwest;whiteSpace=wrap;html=1;" vertex="1" parent="j2k7lzoektzGdvymhS1a-56">
          <mxGeometry y="26" width="250" height="44" as="geometry" />
        </mxCell>
        <mxCell id="j2k7lzoektzGdvymhS1a-58" value="" style="line;strokeWidth=1;fillColor=none;align=left;verticalAlign=middle;spacingTop=-1;spacingLeft=3;spacingRight=3;rotatable=0;labelPosition=right;points=[];portConstraint=eastwest;strokeColor=inherit;" vertex="1" parent="j2k7lzoektzGdvymhS1a-56">
          <mxGeometry y="70" width="250" height="8" as="geometry" />
        </mxCell>
        <mxCell id="j2k7lzoektzGdvymhS1a-59" value="+ balanceRequest(request)&lt;div&gt;&lt;div&gt;+ setLoadBalancingAlgorithm(algorithm: LoadBalancingAlgorithmType)&lt;/div&gt;&lt;/div&gt;&lt;div&gt;&lt;br&gt;&lt;/div&gt;" style="text;strokeColor=none;fillColor=none;align=left;verticalAlign=top;spacingLeft=4;spacingRight=4;overflow=hidden;rotatable=0;points=[[0,0.5],[1,0.5]];portConstraint=eastwest;whiteSpace=wrap;html=1;" vertex="1" parent="j2k7lzoektzGdvymhS1a-56">
          <mxGeometry y="78" width="250" height="60" as="geometry" />
        </mxCell>
        <mxCell id="j2k7lzoektzGdvymhS1a-68" style="edgeStyle=orthogonalEdgeStyle;rounded=0;orthogonalLoop=1;jettySize=auto;html=1;exitX=0.5;exitY=0;exitDx=0;exitDy=0;endArrow=none;endFill=0;" edge="1" parent="1" source="j2k7lzoektzGdvymhS1a-60">
          <mxGeometry relative="1" as="geometry">
            <mxPoint x="-395.121212121212" y="1287" as="targetPoint" />
          </mxGeometry>
        </mxCell>
        <mxCell id="j2k7lzoektzGdvymhS1a-60" value="&amp;lt;&amp;lt;enumeration&amp;gt;&amp;gt;&lt;div&gt;&lt;div style=&quot;&quot;&gt;&lt;span style=&quot;font-weight: 400;&quot;&gt;LoadBalancingAlgorithmType&lt;/span&gt;&lt;br&gt;&lt;/div&gt;&lt;/div&gt;&lt;div&gt;&lt;span style=&quot;background-color: initial;&quot;&gt;&lt;br&gt;&lt;/span&gt;&lt;/div&gt;" style="swimlane;fontStyle=1;align=center;verticalAlign=top;childLayout=stackLayout;horizontal=1;startSize=40;horizontalStack=0;resizeParent=1;resizeParentMax=0;resizeLast=0;collapsible=1;marginBottom=0;whiteSpace=wrap;html=1;" vertex="1" parent="1">
          <mxGeometry x="-490" y="1338" width="190" height="80" as="geometry" />
        </mxCell>
        <mxCell id="j2k7lzoektzGdvymhS1a-61" value="ROUND_ROBIN&lt;div&gt;RANDOM&lt;/div&gt;" style="text;strokeColor=none;fillColor=none;align=left;verticalAlign=top;spacingLeft=4;spacingRight=4;overflow=hidden;rotatable=0;points=[[0,0.5],[1,0.5]];portConstraint=eastwest;whiteSpace=wrap;html=1;" vertex="1" parent="j2k7lzoektzGdvymhS1a-60">
          <mxGeometry y="40" width="190" height="40" as="geometry" />
        </mxCell>
        <mxCell id="j2k7lzoektzGdvymhS1a-74" style="edgeStyle=orthogonalEdgeStyle;rounded=0;orthogonalLoop=1;jettySize=auto;html=1;exitX=0.5;exitY=0;exitDx=0;exitDy=0;endArrow=none;endFill=0;entryX=0.333;entryY=1.038;entryDx=0;entryDy=0;entryPerimeter=0;" edge="1" parent="1" source="j2k7lzoektzGdvymhS1a-62" target="j2k7lzoektzGdvymhS1a-107">
          <mxGeometry relative="1" as="geometry">
            <mxPoint x="-690" y="1100" as="targetPoint" />
            <mxPoint x="-855" y="1113" as="sourcePoint" />
          </mxGeometry>
        </mxCell>
        <mxCell id="j2k7lzoektzGdvymhS1a-62" value="&lt;span style=&quot;font-weight: normal;&quot;&gt;&amp;lt;&amp;lt;&lt;/span&gt;&lt;span style=&quot;font-weight: 400;&quot;&gt;service&lt;/span&gt;&lt;span style=&quot;font-weight: normal;&quot;&gt;&amp;gt;&amp;gt; ScalingEngine&lt;/span&gt;" style="swimlane;fontStyle=1;align=center;verticalAlign=top;childLayout=stackLayout;horizontal=1;startSize=26;horizontalStack=0;resizeParent=1;resizeParentMax=0;resizeLast=0;collapsible=1;marginBottom=0;whiteSpace=wrap;html=1;" vertex="1" parent="1">
          <mxGeometry x="-960" y="1144" width="230" height="190" as="geometry" />
        </mxCell>
        <mxCell id="j2k7lzoektzGdvymhS1a-63" value="- scalingRules: List&amp;lt;ScalingRule&amp;gt;&lt;div&gt;&lt;br&gt;&lt;/div&gt;" style="text;strokeColor=none;fillColor=none;align=left;verticalAlign=top;spacingLeft=4;spacingRight=4;overflow=hidden;rotatable=0;points=[[0,0.5],[1,0.5]];portConstraint=eastwest;whiteSpace=wrap;html=1;" vertex="1" parent="j2k7lzoektzGdvymhS1a-62">
          <mxGeometry y="26" width="230" height="34" as="geometry" />
        </mxCell>
        <mxCell id="j2k7lzoektzGdvymhS1a-64" value="" style="line;strokeWidth=1;fillColor=none;align=left;verticalAlign=middle;spacingTop=-1;spacingLeft=3;spacingRight=3;rotatable=0;labelPosition=right;points=[];portConstraint=eastwest;strokeColor=inherit;" vertex="1" parent="j2k7lzoektzGdvymhS1a-62">
          <mxGeometry y="60" width="230" height="8" as="geometry" />
        </mxCell>
        <mxCell id="j2k7lzoektzGdvymhS1a-65" value="&lt;div&gt;+ evaluateMetrics(metrics: PodMetrics)&lt;/div&gt;&lt;div&gt;&lt;div&gt;+ setScalingRule(rule: ScalingRule)&lt;br&gt;&lt;/div&gt;&lt;/div&gt;&lt;div&gt;&lt;span style=&quot;background-color: initial;&quot;&gt;- scaleUp()&lt;/span&gt;&lt;br&gt;&lt;/div&gt;&lt;div&gt;- scaleDown()&lt;/div&gt;&lt;div&gt;- scaleToZero()&lt;/div&gt;" style="text;strokeColor=none;fillColor=none;align=left;verticalAlign=top;spacingLeft=4;spacingRight=4;overflow=hidden;rotatable=0;points=[[0,0.5],[1,0.5]];portConstraint=eastwest;whiteSpace=wrap;html=1;" vertex="1" parent="j2k7lzoektzGdvymhS1a-62">
          <mxGeometry y="68" width="230" height="82" as="geometry" />
        </mxCell>
        <mxCell id="j2k7lzoektzGdvymhS1a-66" value="" style="line;strokeWidth=1;fillColor=none;align=left;verticalAlign=middle;spacingTop=-1;spacingLeft=3;spacingRight=3;rotatable=0;labelPosition=right;points=[];portConstraint=eastwest;strokeColor=inherit;" vertex="1" parent="j2k7lzoektzGdvymhS1a-62">
          <mxGeometry y="150" width="230" height="8" as="geometry" />
        </mxCell>
        <mxCell id="j2k7lzoektzGdvymhS1a-67" value="&lt;span style=&quot;text-wrap: nowrap; background-color: rgb(255, 255, 255);&quot;&gt;&amp;lt;&amp;lt;signal&amp;gt;&amp;gt; apply()&lt;/span&gt;" style="text;strokeColor=none;fillColor=none;align=left;verticalAlign=top;spacingLeft=4;spacingRight=4;overflow=hidden;rotatable=0;points=[[0,0.5],[1,0.5]];portConstraint=eastwest;whiteSpace=wrap;html=1;" vertex="1" parent="j2k7lzoektzGdvymhS1a-62">
          <mxGeometry y="158" width="230" height="32" as="geometry" />
        </mxCell>
        <mxCell id="j2k7lzoektzGdvymhS1a-69" value="1" style="text;html=1;align=center;verticalAlign=middle;resizable=0;points=[];autosize=1;strokeColor=none;fillColor=none;" vertex="1" parent="1">
          <mxGeometry x="-400" y="1317" width="30" height="30" as="geometry" />
        </mxCell>
        <mxCell id="j2k7lzoektzGdvymhS1a-70" value="1" style="text;html=1;align=center;verticalAlign=middle;resizable=0;points=[];autosize=1;strokeColor=none;fillColor=none;" vertex="1" parent="1">
          <mxGeometry x="-400" y="1282" width="30" height="30" as="geometry" />
        </mxCell>
        <mxCell id="j2k7lzoektzGdvymhS1a-76" style="rounded=0;orthogonalLoop=1;jettySize=auto;html=1;entryX=0.5;entryY=0;entryDx=0;entryDy=0;startArrow=none;startFill=0;endArrow=none;endFill=0;" edge="1" parent="1" source="j2k7lzoektzGdvymhS1a-77" target="j2k7lzoektzGdvymhS1a-80">
          <mxGeometry relative="1" as="geometry" />
        </mxCell>
        <mxCell id="j2k7lzoektzGdvymhS1a-77" value="&amp;lt;&amp;lt;value&amp;gt;&amp;gt; ScalingRule" style="swimlane;fontStyle=0;childLayout=stackLayout;horizontal=1;startSize=26;fillColor=none;horizontalStack=0;resizeParent=1;resizeParentMax=0;resizeLast=0;collapsible=1;marginBottom=0;whiteSpace=wrap;html=1;" vertex="1" parent="1">
          <mxGeometry x="-1234" y="1177" width="180" height="80" as="geometry" />
        </mxCell>
        <mxCell id="j2k7lzoektzGdvymhS1a-78" value="&lt;div&gt;- action: Action&lt;/div&gt;&lt;div&gt;- thresholds: List&amp;lt;Threshold&amp;gt;&lt;/div&gt;" style="text;strokeColor=none;fillColor=none;align=left;verticalAlign=top;spacingLeft=4;spacingRight=4;overflow=hidden;rotatable=0;points=[[0,0.5],[1,0.5]];portConstraint=eastwest;whiteSpace=wrap;html=1;" vertex="1" parent="j2k7lzoektzGdvymhS1a-77">
          <mxGeometry y="26" width="180" height="54" as="geometry" />
        </mxCell>
        <mxCell id="j2k7lzoektzGdvymhS1a-79" style="rounded=0;orthogonalLoop=1;jettySize=auto;html=1;endArrow=none;endFill=0;" edge="1" parent="1" source="j2k7lzoektzGdvymhS1a-80" target="j2k7lzoektzGdvymhS1a-84">
          <mxGeometry relative="1" as="geometry" />
        </mxCell>
        <mxCell id="j2k7lzoektzGdvymhS1a-80" value="&amp;lt;&amp;lt;value&amp;gt;&amp;gt; Threshold" style="swimlane;fontStyle=0;childLayout=stackLayout;horizontal=1;startSize=26;fillColor=none;horizontalStack=0;resizeParent=1;resizeParentMax=0;resizeLast=0;collapsible=1;marginBottom=0;whiteSpace=wrap;html=1;" vertex="1" parent="1">
          <mxGeometry x="-1234" y="1319" width="180" height="80" as="geometry" />
        </mxCell>
        <mxCell id="j2k7lzoektzGdvymhS1a-81" value="&lt;div&gt;- metricType: MetricType&lt;/div&gt;&lt;div&gt;- value: float&lt;/div&gt;&lt;div&gt;- operator: Operator&lt;/div&gt;" style="text;strokeColor=none;fillColor=none;align=left;verticalAlign=top;spacingLeft=4;spacingRight=4;overflow=hidden;rotatable=0;points=[[0,0.5],[1,0.5]];portConstraint=eastwest;whiteSpace=wrap;html=1;" vertex="1" parent="j2k7lzoektzGdvymhS1a-80">
          <mxGeometry y="26" width="180" height="54" as="geometry" />
        </mxCell>
        <mxCell id="j2k7lzoektzGdvymhS1a-82" value="&amp;lt;&amp;lt;enumeration&amp;gt;&amp;gt;&lt;div&gt;&lt;div style=&quot;font-weight: 400;&quot;&gt;&lt;span style=&quot;background-color: initial;&quot;&gt;Action&lt;/span&gt;&lt;br&gt;&lt;/div&gt;&lt;/div&gt;&lt;div&gt;&lt;span style=&quot;background-color: initial;&quot;&gt;&lt;br&gt;&lt;/span&gt;&lt;/div&gt;" style="swimlane;fontStyle=1;align=center;verticalAlign=top;childLayout=stackLayout;horizontal=1;startSize=40;horizontalStack=0;resizeParent=1;resizeParentMax=0;resizeLast=0;collapsible=1;marginBottom=0;whiteSpace=wrap;html=1;" vertex="1" parent="1">
          <mxGeometry x="-1620" y="1169" width="230" height="100" as="geometry" />
        </mxCell>
        <mxCell id="j2k7lzoektzGdvymhS1a-83" value="&lt;div&gt;INCREASE_INSTANCES&lt;/div&gt;&lt;div&gt;DECREASE_INSTANCES&lt;span style=&quot;background-color: initial;&quot;&gt;&amp;nbsp; DECREASE_INSTANCES_TO_ZERO&lt;/span&gt;&lt;/div&gt;" style="text;strokeColor=none;fillColor=none;align=left;verticalAlign=top;spacingLeft=4;spacingRight=4;overflow=hidden;rotatable=0;points=[[0,0.5],[1,0.5]];portConstraint=eastwest;whiteSpace=wrap;html=1;" vertex="1" parent="j2k7lzoektzGdvymhS1a-82">
          <mxGeometry y="40" width="230" height="60" as="geometry" />
        </mxCell>
        <mxCell id="j2k7lzoektzGdvymhS1a-84" value="&amp;lt;&amp;lt;enumeration&amp;gt;&amp;gt;&lt;div&gt;&lt;div style=&quot;font-weight: 400;&quot;&gt;MetricType&lt;/div&gt;&lt;/div&gt;&lt;div&gt;&lt;span style=&quot;background-color: initial;&quot;&gt;&lt;br&gt;&lt;/span&gt;&lt;/div&gt;" style="swimlane;fontStyle=1;align=center;verticalAlign=top;childLayout=stackLayout;horizontal=1;startSize=40;horizontalStack=0;resizeParent=1;resizeParentMax=0;resizeLast=0;collapsible=1;marginBottom=0;whiteSpace=wrap;html=1;" vertex="1" parent="1">
          <mxGeometry x="-1510" y="1299" width="230" height="120" as="geometry" />
        </mxCell>
        <mxCell id="j2k7lzoektzGdvymhS1a-85" value="&lt;div&gt;CPU_USAGE&lt;/div&gt;&lt;div&gt;MEMORY_USAGE&lt;/div&gt;&lt;div&gt;DISK_USAGE&lt;/div&gt;&lt;div&gt;AVERAGE_RESPONSE_TIME&lt;/div&gt;" style="text;strokeColor=none;fillColor=none;align=left;verticalAlign=top;spacingLeft=4;spacingRight=4;overflow=hidden;rotatable=0;points=[[0,0.5],[1,0.5]];portConstraint=eastwest;whiteSpace=wrap;html=1;" vertex="1" parent="j2k7lzoektzGdvymhS1a-84">
          <mxGeometry y="40" width="230" height="80" as="geometry" />
        </mxCell>
        <mxCell id="j2k7lzoektzGdvymhS1a-86" value="&amp;lt;&amp;lt;enumeration&amp;gt;&amp;gt;&lt;div&gt;&lt;div style=&quot;font-weight: 400;&quot;&gt;&lt;span style=&quot;background-color: initial;&quot;&gt;Operator&lt;/span&gt;&lt;br&gt;&lt;/div&gt;&lt;/div&gt;&lt;div&gt;&lt;span style=&quot;background-color: initial;&quot;&gt;&lt;br&gt;&lt;/span&gt;&lt;/div&gt;" style="swimlane;fontStyle=1;align=center;verticalAlign=top;childLayout=stackLayout;horizontal=1;startSize=40;horizontalStack=0;resizeParent=1;resizeParentMax=0;resizeLast=0;collapsible=1;marginBottom=0;whiteSpace=wrap;html=1;" vertex="1" parent="1">
          <mxGeometry x="-1158" y="1444" width="140" height="100" as="geometry" />
        </mxCell>
        <mxCell id="j2k7lzoektzGdvymhS1a-87" value="&lt;div&gt;GREATER_THAN&lt;/div&gt;&lt;div&gt;LESS_THAN&lt;/div&gt;&lt;div&gt;EQUAL_TO&lt;/div&gt;" style="text;strokeColor=none;fillColor=none;align=left;verticalAlign=top;spacingLeft=4;spacingRight=4;overflow=hidden;rotatable=0;points=[[0,0.5],[1,0.5]];portConstraint=eastwest;whiteSpace=wrap;html=1;" vertex="1" parent="j2k7lzoektzGdvymhS1a-86">
          <mxGeometry y="40" width="140" height="60" as="geometry" />
        </mxCell>
        <mxCell id="j2k7lzoektzGdvymhS1a-88" style="edgeStyle=orthogonalEdgeStyle;rounded=0;orthogonalLoop=1;jettySize=auto;html=1;entryX=1.007;entryY=0.364;entryDx=0;entryDy=0;entryPerimeter=0;endArrow=none;endFill=0;" edge="1" parent="1" source="j2k7lzoektzGdvymhS1a-78" target="j2k7lzoektzGdvymhS1a-83">
          <mxGeometry relative="1" as="geometry" />
        </mxCell>
        <mxCell id="j2k7lzoektzGdvymhS1a-89" value="1" style="text;html=1;align=center;verticalAlign=middle;resizable=0;points=[];autosize=1;strokeColor=none;fillColor=none;" vertex="1" parent="1">
          <mxGeometry x="-1264" y="1207" width="30" height="30" as="geometry" />
        </mxCell>
        <mxCell id="j2k7lzoektzGdvymhS1a-90" value="1" style="text;html=1;align=center;verticalAlign=middle;resizable=0;points=[];autosize=1;strokeColor=none;fillColor=none;" vertex="1" parent="1">
          <mxGeometry x="-1394" y="1207" width="30" height="30" as="geometry" />
        </mxCell>
        <mxCell id="j2k7lzoektzGdvymhS1a-91" value="1" style="text;html=1;align=center;verticalAlign=middle;resizable=0;points=[];autosize=1;strokeColor=none;fillColor=none;" vertex="1" parent="1">
          <mxGeometry x="-1291" y="1337" width="30" height="30" as="geometry" />
        </mxCell>
        <mxCell id="j2k7lzoektzGdvymhS1a-93" style="rounded=0;orthogonalLoop=1;jettySize=auto;html=1;entryX=0.808;entryY=1.019;entryDx=0;entryDy=0;entryPerimeter=0;startArrow=none;startFill=0;endArrow=none;endFill=0;" edge="1" parent="1" source="j2k7lzoektzGdvymhS1a-86" target="j2k7lzoektzGdvymhS1a-81">
          <mxGeometry relative="1" as="geometry" />
        </mxCell>
        <mxCell id="j2k7lzoektzGdvymhS1a-94" value="1" style="text;html=1;align=center;verticalAlign=middle;resizable=0;points=[];autosize=1;strokeColor=none;fillColor=none;" vertex="1" parent="1">
          <mxGeometry x="-1255" y="1337" width="30" height="30" as="geometry" />
        </mxCell>
        <mxCell id="j2k7lzoektzGdvymhS1a-95" value="1" style="text;html=1;align=center;verticalAlign=middle;resizable=0;points=[];autosize=1;strokeColor=none;fillColor=none;" vertex="1" parent="1">
          <mxGeometry x="-1098" y="1422" width="30" height="30" as="geometry" />
        </mxCell>
        <mxCell id="j2k7lzoektzGdvymhS1a-96" value="1..*" style="text;html=1;align=center;verticalAlign=middle;resizable=0;points=[];autosize=1;strokeColor=none;fillColor=none;" vertex="1" parent="1">
          <mxGeometry x="-1181" y="1293" width="40" height="30" as="geometry" />
        </mxCell>
        <mxCell id="j2k7lzoektzGdvymhS1a-98" value="1" style="text;html=1;align=center;verticalAlign=middle;resizable=0;points=[];autosize=1;strokeColor=none;fillColor=none;" vertex="1" parent="1">
          <mxGeometry x="-850" y="942" width="30" height="30" as="geometry" />
        </mxCell>
        <mxCell id="j2k7lzoektzGdvymhS1a-101" value="1" style="text;html=1;align=center;verticalAlign=middle;resizable=0;points=[];autosize=1;strokeColor=none;fillColor=none;" vertex="1" parent="1">
          <mxGeometry x="-950" y="943" width="30" height="30" as="geometry" />
        </mxCell>
        <mxCell id="j2k7lzoektzGdvymhS1a-102" value="1" style="text;html=1;align=center;verticalAlign=middle;resizable=0;points=[];autosize=1;strokeColor=none;fillColor=none;" vertex="1" parent="1">
          <mxGeometry x="-879" y="1119" width="30" height="30" as="geometry" />
        </mxCell>
        <mxCell id="j2k7lzoektzGdvymhS1a-103" value="1" style="text;html=1;align=center;verticalAlign=middle;resizable=0;points=[];autosize=1;strokeColor=none;fillColor=none;" vertex="1" parent="1">
          <mxGeometry x="-711" y="1059" width="30" height="30" as="geometry" />
        </mxCell>
        <mxCell id="j2k7lzoektzGdvymhS1a-104" style="edgeStyle=orthogonalEdgeStyle;rounded=0;orthogonalLoop=1;jettySize=auto;html=1;exitX=1;exitY=0.5;exitDx=0;exitDy=0;entryX=0.003;entryY=0.218;entryDx=0;entryDy=0;entryPerimeter=0;endArrow=diamondThin;endFill=0;" edge="1" parent="1" source="j2k7lzoektzGdvymhS1a-78" target="j2k7lzoektzGdvymhS1a-65">
          <mxGeometry relative="1" as="geometry" />
        </mxCell>
        <mxCell id="j2k7lzoektzGdvymhS1a-105" value="1" style="text;html=1;align=center;verticalAlign=middle;resizable=0;points=[];autosize=1;strokeColor=none;fillColor=none;" vertex="1" parent="1">
          <mxGeometry x="-1179" y="1252" width="30" height="30" as="geometry" />
        </mxCell>
        <mxCell id="j2k7lzoektzGdvymhS1a-106" value="1" style="text;html=1;align=center;verticalAlign=middle;resizable=0;points=[];autosize=1;strokeColor=none;fillColor=none;" vertex="1" parent="1">
          <mxGeometry x="-1098" y="1392" width="30" height="30" as="geometry" />
        </mxCell>
        <mxCell id="j2k7lzoektzGdvymhS1a-109" value="&lt;span style=&quot;font-style: italic; text-wrap: nowrap;&quot;&gt;&amp;lt;&amp;lt;entity&amp;gt;&amp;gt;&lt;/span&gt;&amp;nbsp;Application" style="swimlane;fontStyle=0;childLayout=stackLayout;horizontal=1;startSize=26;fillColor=none;horizontalStack=0;resizeParent=1;resizeParentMax=0;resizeLast=0;collapsible=1;marginBottom=0;whiteSpace=wrap;html=1;" vertex="1" parent="1">
          <mxGeometry x="-750" y="1400" width="180" height="80" as="geometry" />
        </mxCell>
        <mxCell id="j2k7lzoektzGdvymhS1a-110" value="+ PodMetrics" style="text;strokeColor=none;fillColor=none;align=left;verticalAlign=top;spacingLeft=4;spacingRight=4;overflow=hidden;rotatable=0;points=[[0,0.5],[1,0.5]];portConstraint=eastwest;whiteSpace=wrap;html=1;" vertex="1" parent="j2k7lzoektzGdvymhS1a-109">
          <mxGeometry y="26" width="180" height="54" as="geometry" />
        </mxCell>
        <mxCell id="j2k7lzoektzGdvymhS1a-111" style="edgeStyle=orthogonalEdgeStyle;rounded=0;orthogonalLoop=1;jettySize=auto;html=1;exitX=0;exitY=0.5;exitDx=0;exitDy=0;entryX=0.75;entryY=0;entryDx=0;entryDy=0;" edge="1" parent="1" source="j2k7lzoektzGdvymhS1a-59" target="j2k7lzoektzGdvymhS1a-109">
          <mxGeometry relative="1" as="geometry" />
        </mxCell>
        <mxCell id="j2k7lzoektzGdvymhS1a-113" value="Proxy request" style="edgeLabel;html=1;align=center;verticalAlign=middle;resizable=0;points=[];" vertex="1" connectable="0" parent="j2k7lzoektzGdvymhS1a-111">
          <mxGeometry x="0.3537" relative="1" as="geometry">
            <mxPoint as="offset" />
          </mxGeometry>
        </mxCell>
        <mxCell id="j2k7lzoektzGdvymhS1a-114" style="edgeStyle=orthogonalEdgeStyle;rounded=0;orthogonalLoop=1;jettySize=auto;html=1;exitX=1;exitY=0.5;exitDx=0;exitDy=0;entryX=0.313;entryY=0.017;entryDx=0;entryDy=0;entryPerimeter=0;" edge="1" parent="1" source="j2k7lzoektzGdvymhS1a-65" target="j2k7lzoektzGdvymhS1a-109">
          <mxGeometry relative="1" as="geometry" />
        </mxCell>
        <mxCell id="j2k7lzoektzGdvymhS1a-115" value="Manage scaling" style="edgeLabel;html=1;align=center;verticalAlign=middle;resizable=0;points=[];" vertex="1" connectable="0" parent="j2k7lzoektzGdvymhS1a-114">
          <mxGeometry x="0.3259" y="1" relative="1" as="geometry">
            <mxPoint as="offset" />
          </mxGeometry>
        </mxCell>
      </root>
    </mxGraphModel>
  </diagram>
</mxfile>
